<?xml version="1.0" standalone="no"?>
<!DOCTYPE svg PUBLIC "-//W3C//DTD SVG 20010904//EN"
 "http://www.w3.org/TR/2001/REC-SVG-20010904/DTD/svg10.dtd">
<svg version="1.0" xmlns="http://www.w3.org/2000/svg"
 width="16.000000pt" height="16.000000pt" viewBox="0 0 16.000000 16.000000"
 preserveAspectRatio="xMidYMid meet">
<metadata>
Created by potrace 1.11, written by Peter Selinger 2001-2013
</metadata>
<g transform="translate(0.000000,16.000000) scale(0.003125,-0.003125)"
fill="#000000" stroke="none">
<path d="M2111 5106 c-52 -28 -56 -47 -58 -261 -1 -110 -3 -212 -3 -226 0 -21
-9 -30 -50 -49 -61 -29 -133 -103 -162 -167 -17 -38 -22 -67 -22 -138 0 -49 3
-103 7 -120 10 -43 15 -67 21 -111 6 -38 22 -128 30 -169 9 -48 35 -193 40
-225 7 -43 13 -79 26 -145 5 -27 12 -66 15 -85 3 -19 10 -55 15 -80 6 -25 12
-69 13 -99 l2 -54 -90 -36 c-291 -118 -557 -316 -826 -617 -122 -136 -301
-408 -402 -610 -126 -251 -262 -628 -301 -834 -3 -14 -14 -65 -24 -115 -11
-49 -23 -112 -27 -140 -4 -27 -9 -59 -10 -70 -31 -212 -42 -347 -45 -530 -3
-156 -3 -154 34 -191 l34 -34 2223 0 c1748 0 2229 3 2248 13 54 27 64 55 62
180 0 64 -3 144 -6 179 -2 35 -7 95 -10 133 -4 66 -21 201 -31 255 -2 14 -7
43 -9 64 -3 22 -10 58 -15 80 -5 23 -11 55 -14 71 -50 278 -176 645 -317 926
-129 259 -264 459 -450 668 -235 265 -520 470 -805 580 l-80 31 42 237 c24
131 46 253 49 272 3 19 7 43 10 55 2 12 7 38 10 58 2 21 9 57 14 80 5 24 12
63 16 88 3 25 8 52 10 60 2 8 7 29 9 45 3 17 9 48 13 70 15 78 8 207 -14 255
-29 65 -103 142 -162 170 l-51 23 0 213 c0 123 -4 224 -10 240 -19 48 -64 75
-124 72 -29 -2 -86 -64 -87 -96 0 -15 -1 -114 -1 -219 -1 -171 -3 -193 -17
-194 -18 -1 -504 -1 -537 0 -21 1 -21 4 -21 216 l-1 215 -26 35 c-15 19 -35
36 -44 37 -57 5 -72 4 -91 -6z m922 -739 c53 -35 65 -88 44 -192 -2 -11 -7
-37 -11 -57 l-7 -38 -499 0 c-275 0 -500 3 -500 8 -1 4 -5 27 -10 52 -22 104
-22 153 0 188 36 58 38 58 518 57 401 0 440 -1 465 -18z m-17 -534 c-3 -16
-19 -107 -36 -203 -17 -96 -40 -221 -51 -278 -10 -57 -19 -105 -19 -108 0 -5
-32 -1 -135 17 -66 12 -324 15 -395 5 -25 -4 -71 -11 -104 -17 -32 -6 -60 -9
-62 -6 -3 3 -24 104 -38 192 -11 65 -67 372 -72 398 l-6 27 462 0 462 0 -6
-27z m-417 -813 c80 -81 202 -443 256 -762 3 -18 8 -40 10 -48 3 -8 7 -33 10
-55 3 -22 7 -49 9 -60 8 -43 28 -184 41 -295 3 -25 8 -61 10 -80 3 -19 7 -60
10 -90 4 -30 8 -66 10 -80 2 -14 7 -63 10 -110 3 -47 8 -101 10 -120 13 -130
20 -231 30 -475 4 -88 8 -177 10 -197 2 -21 1 -38 -3 -38 -3 0 -35 12 -71 26
-48 20 -90 28 -156 32 -104 5 -166 -9 -289 -62 -103 -45 -176 -45 -278 2 -37
17 -78 34 -92 38 -18 4 -23 11 -21 27 2 12 6 85 9 162 4 77 8 167 10 200 3 33
8 103 11 155 4 52 8 113 10 135 3 22 7 72 10 110 5 72 11 128 21 205 3 25 7
61 9 80 2 19 6 53 9 75 3 22 8 60 11 85 6 50 25 184 31 215 2 10 6 35 9 55 6
40 8 51 31 165 8 44 22 107 31 140 8 33 17 69 19 79 8 41 56 202 79 261 52
139 122 255 154 255 5 0 23 -14 40 -30z m-369 -54 c0 -2 -16 -48 -35 -101 -72
-198 -162 -588 -190 -815 -3 -25 -7 -56 -9 -70 -3 -14 -8 -50 -11 -80 -3 -30
-7 -66 -9 -80 -3 -14 -7 -47 -11 -75 -3 -27 -8 -63 -10 -80 -3 -16 -7 -61 -10
-100 -3 -38 -8 -88 -10 -110 -3 -22 -7 -74 -11 -115 -3 -41 -7 -91 -9 -110 -1
-19 -6 -98 -10 -175 -4 -77 -8 -158 -10 -180 -2 -22 -4 -77 -5 -122 l-2 -82
-62 -20 c-33 -11 -90 -33 -126 -49 -91 -42 -173 -39 -285 11 -102 45 -138 55
-212 56 -47 1 -54 13 -42 71 4 19 10 69 14 110 4 41 9 78 11 81 1 3 6 28 9 55
3 27 13 85 21 129 9 44 18 96 21 115 8 54 90 373 120 464 151 471 369 861 605
1081 86 80 101 92 183 147 65 43 85 54 85 44z m728 -33 c295 -180 562 -563
748 -1073 34 -93 120 -370 128 -413 2 -12 11 -49 19 -82 9 -33 18 -73 21 -90
2 -16 9 -55 16 -85 6 -30 13 -68 16 -85 2 -16 9 -55 14 -85 20 -116 50 -365
50 -419 l0 -34 -54 6 c-29 3 -83 19 -119 36 -177 83 -336 83 -498 0 -22 -11
-46 -18 -52 -16 -6 2 -12 31 -13 68 -1 35 -5 120 -8 189 -3 69 -8 170 -11 225
-3 55 -7 120 -10 145 -3 25 -7 77 -10 115 -8 106 -20 237 -30 320 -2 17 -7 66
-10 110 -4 44 -9 83 -11 86 -2 3 -8 43 -14 90 -5 46 -12 95 -15 109 -2 14 -11
68 -20 120 -26 157 -64 338 -96 459 -35 128 -96 310 -111 329 -19 22 7 13 70
-25z m-1421 -332 c-202 -304 -355 -671 -471 -1126 -28 -112 -80 -378 -92 -470
-4 -33 -9 -62 -9 -65 -2 -7 -16 -118 -20 -160 -2 -19 -7 -64 -11 -100 -3 -36
-9 -68 -13 -72 -18 -18 -102 -36 -158 -33 -50 2 -79 11 -145 45 -46 23 -87 46
-92 50 -11 11 5 120 45 305 137 628 417 1171 793 1540 51 50 105 101 122 115
43 37 135 110 139 110 2 0 -38 -62 -88 -139z m2070 54 c74 -61 251 -242 318
-325 160 -198 304 -438 405 -675 23 -55 49 -114 56 -131 18 -42 101 -289 113
-339 58 -232 53 -211 87 -404 33 -189 33 -187 -32 -157 -93 43 -241 60 -323
36 -19 -5 -36 -9 -37 -7 -4 3 -19 120 -29 217 -3 30 -7 66 -9 80 -3 14 -10 59
-16 100 -76 480 -235 981 -418 1320 -86 159 -201 338 -224 348 -5 2 -8 8 -8
13 0 11 48 -20 117 -76z m-2272 -2248 c169 -75 301 -75 468 -1 65 29 97 38
152 40 63 3 80 -1 162 -36 109 -47 146 -56 238 -59 77 -2 153 15 236 52 132
60 196 60 324 4 95 -42 117 -48 212 -54 88 -6 153 7 257 53 114 51 190 56 277
19 142 -60 173 -68 266 -71 87 -3 170 11 215 36 69 39 142 59 206 56 70 -2 96
-11 218 -79 l71 -39 2 -54 2 -54 -2082 0 -2081 0 7 102 c3 56 8 104 10 106 1
2 23 -7 47 -19 86 -44 156 -59 258 -55 94 4 131 13 226 56 110 51 189 50 309
-3z"/>
</g>
</svg>
